<?xml version="1.0" standalone="no"?>
<!DOCTYPE svg PUBLIC "-//W3C//DTD SVG 20010904//EN"
 "http://www.w3.org/TR/2001/REC-SVG-20010904/DTD/svg10.dtd">
<svg version="1.0" xmlns="http://www.w3.org/2000/svg"
 width="500.000000pt" height="500.000000pt" viewBox="0 0 500.000000 500.000000"
 preserveAspectRatio="xMidYMid meet">

<g transform="translate(0.000000,500.000000) scale(0.100000,-0.100000)"
fill="#000000" stroke="none">
<path d="M3251 3404 c0 -11 3 -14 6 -6 3 7 2 16 -1 19 -3 4 -6 -2 -5 -13z"/>
<path d="M3290 3321 c-33 -16 -64 -41 -77 -62 -13 -19 -27 -39 -32 -45 -14
-17 -41 -73 -40 -81 1 -4 -1 -15 -4 -23 -3 -8 -15 -58 -26 -110 -11 -52 -23
-106 -27 -120 -4 -15 -3 -22 2 -17 5 5 9 12 9 15 1 27 29 101 37 96 10 -6 102
65 94 73 -3 3 9 15 27 27 33 23 81 87 92 123 5 18 3 21 -17 16 -18 -4 -16 -1
10 16 17 11 32 27 32 35 0 8 11 28 25 44 13 16 22 32 18 36 -14 14 -71 4 -123
-23z m-3 -157 c-3 -3 -12 -4 -19 -1 -8 3 -5 6 6 6 11 1 17 -2 13 -5z m-30 -60
c-3 -3 -12 -4 -19 -1 -8 3 -5 6 6 6 11 1 17 -2 13 -5z"/>
<path d="M3379 3193 c39 -47 42 -96 9 -115 -13 -6 -50 -17 -83 -24 -48 -10
-53 -12 -25 -13 49 -1 102 15 129 40 18 17 22 28 17 52 -7 33 -51 97 -67 97
-6 0 3 -17 20 -37z"/>
<path d="M665 3120 c-273 -58 -465 -290 -465 -560 0 -172 56 -286 221 -451
147 -148 163 -179 164 -312 1 -139 -7 -133 235 -152 261 -20 303 -19 322 3 9
9 19 41 22 71 10 78 49 153 94 184 20 14 81 37 135 51 107 28 149 52 172 96
19 37 19 66 0 120 -13 36 -13 45 -1 69 19 36 10 109 -17 138 l-20 22 32 36
c33 38 40 78 18 105 -7 9 -43 37 -80 64 -65 45 -71 53 -117 149 -26 56 -69
128 -94 160 -58 72 -160 148 -246 184 -58 23 -80 27 -200 29 -74 2 -153 -1
-175 -6z m300 -35 c166 -44 319 -180 386 -347 39 -94 52 -111 130 -164 38 -26
71 -55 74 -65 8 -23 -9 -55 -35 -69 -26 -14 -25 -48 1 -77 18 -18 20 -25 9
-38 -7 -8 -21 -15 -31 -15 -11 0 -19 -7 -19 -16 0 -12 7 -15 30 -12 24 4 30 1
30 -13 0 -10 -4 -21 -10 -24 -14 -9 -12 -45 6 -98 28 -84 -10 -125 -152 -161
-111 -28 -143 -45 -187 -96 -34 -40 -67 -128 -67 -181 0 -52 2 -52 -248 -35
-127 9 -238 19 -247 22 -12 5 -15 24 -15 95 0 141 -18 178 -165 329 -67 69
-134 146 -148 171 -127 217 -88 484 95 655 74 69 151 110 251 135 91 22 234
24 312 4z"/>
<path d="M727 2970 c-39 -12 -96 -57 -109 -86 -8 -18 -17 -23 -31 -18 -35 11
-115 5 -146 -10 -54 -28 -85 -81 -89 -151 -7 -101 44 -188 147 -255 70 -44
234 -98 217 -71 -4 6 -2 11 3 11 6 0 11 -7 11 -15 0 -11 11 -15 37 -15 47 0
93 47 146 148 89 170 85 314 -13 412 -52 52 -110 69 -173 50z m111 -44 c133
-69 137 -272 10 -463 l-50 -74 -42 6 c-167 26 -305 105 -351 201 -38 81 -29
157 26 210 27 26 37 29 92 28 34 0 72 -4 84 -8 19 -7 23 -4 29 18 3 15 25 42
47 61 33 28 49 35 84 35 24 0 56 -6 71 -14z"/>
<path d="M1309 2595 c-28 -47 -46 -55 -119 -55 -44 0 -61 -3 -58 -12 7 -21 76
-32 118 -19 39 11 100 70 100 96 0 29 -21 25 -41 -10z"/>
<path d="M3077 3040 c-32 -10 -57 -28 -57 -41 0 -5 9 0 20 11 11 11 29 20 39
20 11 0 23 5 26 10 3 6 5 10 3 9 -2 0 -16 -5 -31 -9z"/>
<path d="M2835 2798 c-3 -7 -30 -92 -61 -188 -30 -96 -73 -228 -95 -293 -21
-64 -39 -124 -39 -132 0 -12 17 -15 80 -16 44 -1 85 -2 92 -3 7 -1 21 27 31
62 l19 62 95 0 c78 0 94 -3 90 -14 -3 -8 0 -17 8 -20 8 -3 17 -21 21 -41 3
-19 10 -38 15 -41 5 -3 42 -5 81 -6 40 0 79 -6 87 -12 12 -9 13 -8 6 3 -6 11
-4 13 7 9 11 -5 4 28 -29 124 -24 71 -40 134 -37 140 4 6 2 8 -4 5 -6 -5 -13
9 -18 35 -9 52 -8 46 -23 83 -7 17 -15 41 -18 55 -2 13 -8 29 -12 35 -5 5 -14
28 -20 50 -7 22 -20 57 -29 77 l-17 38 -113 0 c-81 0 -114 -3 -117 -12z m164
-285 c11 -40 21 -75 21 -78 0 -3 -27 -5 -59 -5 -58 0 -59 0 -56 28 2 15 13 69
26 120 l23 93 12 -43 c6 -24 21 -76 33 -115z"/>
<path d="M2931 2514 c0 -11 3 -14 6 -6 3 7 2 16 -1 19 -3 4 -6 -2 -5 -13z"/>
<path d="M2921 2474 c0 -11 3 -14 6 -6 3 7 2 16 -1 19 -3 4 -6 -2 -5 -13z"/>
<path d="M4423 2796 c-132 -43 -193 -142 -193 -311 0 -76 19 -162 44 -200 24
-37 78 -84 121 -107 32 -17 58 -22 135 -22 57 0 107 5 127 12 22 10 37 11 51
3 14 -8 24 -7 38 4 11 8 14 15 7 15 -6 0 -14 -4 -18 -10 -3 -5 -12 -7 -20 -4
-8 4 -12 10 -9 15 3 5 9 7 14 4 4 -3 10 0 12 6 3 9 10 9 27 -1 19 -10 22 -10
16 1 -6 9 -3 11 8 6 12 -4 14 -2 10 11 -3 9 -2 14 2 9 14 -13 45 44 34 64 -6
12 -4 39 7 81 21 81 13 220 -15 277 -54 105 -133 151 -269 157 -56 3 -102 -1
-129 -10z m182 -158 c42 -27 55 -66 54 -158 -1 -120 -40 -175 -124 -175 -63 0
-98 36 -114 118 -34 175 66 291 184 215z m212 -380 c-7 -10 -15 -18 -19 -18
-3 0 -14 -7 -23 -16 -9 -9 -19 -14 -22 -11 -3 3 2 14 11 23 10 9 25 28 33 41
19 29 38 11 20 -19z"/>
<path d="M4558 2643 c7 -3 16 -2 19 1 4 3 -2 6 -13 5 -11 0 -14 -3 -6 -6z"/>
<path d="M4508 2633 c7 -3 16 -2 19 1 4 3 -2 6 -13 5 -11 0 -14 -3 -6 -6z"/>
<path d="M4466 2614 c-8 -22 -4 -25 11 -9 7 8 9 16 4 19 -5 3 -12 -1 -15 -10z"/>
<path d="M4441 2583 c0 -12 -4 -30 -7 -40 -5 -17 -5 -17 6 0 6 10 9 28 7 40
-4 22 -4 22 -6 0z"/>
<path d="M1740 2486 l0 -316 43 -1 c23 -1 83 0 132 0 69 1 86 -1 75 -10 -12
-9 -11 -10 5 -4 11 4 34 11 50 15 132 33 214 122 235 254 26 166 -28 283 -160
345 -51 24 -68 26 -217 29 l-163 4 0 -316z m305 142 c42 -28 55 -62 55 -141 0
-113 -54 -178 -147 -176 -21 0 -32 3 -25 6 6 2 12 14 11 26 0 21 -1 21 -9 2
-5 -12 -9 42 -9 143 l-1 162 45 0 c30 0 57 -8 80 -22z"/>
<path d="M1978 2633 c7 -3 16 -2 19 1 4 3 -2 6 -13 5 -11 0 -14 -3 -6 -6z"/>
<path d="M2390 2485 l0 -315 33 -1 c17 -1 58 -2 89 -3 l58 -1 0 295 c0 162 -3
305 -6 318 -6 21 -12 22 -90 22 l-84 0 0 -315z"/>
<path d="M3340 2486 l0 -316 35 0 c26 0 33 -3 29 -15 -4 -8 -1 -15 5 -15 6 0
10 6 9 13 -2 8 11 13 40 14 23 0 47 2 52 2 6 1 10 46 10 116 0 103 2 114 17
108 24 -9 49 -37 69 -75 42 -83 88 -148 105 -148 9 0 20 -6 22 -12 4 -10 6
-10 6 0 1 18 111 16 139 -4 12 -8 22 -10 22 -5 0 6 -5 11 -12 11 -6 0 -9 3 -5
6 3 4 -16 38 -42 78 -73 108 -132 206 -123 206 14 0 59 45 74 75 39 77 30 149
-26 208 -50 51 -87 60 -263 65 l-163 4 0 -316z m276 149 c41 -45 5 -105 -63
-105 -26 0 -33 4 -33 20 0 11 6 20 13 21 10 0 10 2 0 6 -8 3 -13 23 -13 49 l0
45 38 -6 c20 -4 47 -17 58 -30z"/>
<path d="M3537 2643 c-4 -3 -7 -11 -7 -17 0 -7 3 -7 8 0 4 7 16 14 27 17 19 5
19 5 -1 6 -11 0 -24 -2 -27 -6z"/>
<path d="M3940 2485 l0 -315 75 0 c58 0 77 -4 81 -15 4 -8 10 -15 15 -15 4 0
6 7 3 15 -4 10 0 15 12 15 13 0 15 3 7 8 -9 6 -13 87 -15 312 l-3 305 -87 3
-88 3 0 -316z"/>
<path d="M3812 2510 c0 -14 2 -19 5 -12 2 6 2 18 0 25 -3 6 -5 1 -5 -13z"/>
<path d="M4851 2374 c0 -11 3 -14 6 -6 3 7 2 16 -1 19 -3 4 -6 -2 -5 -13z"/>
<path d="M2275 2329 c-4 -6 -5 -12 -2 -15 2 -3 7 2 10 11 7 17 1 20 -8 4z"/>
<path d="M4840 2319 c0 -5 5 -7 10 -4 6 3 10 8 10 11 0 2 -4 4 -10 4 -5 0 -10
-5 -10 -11z"/>
<path d="M3534 2276 c-3 -8 -4 -29 -2 -48 3 -29 4 -27 8 15 5 48 3 58 -6 33z"/>
<path d="M2241 2271 c-8 -5 -9 -11 -3 -15 5 -3 12 1 16 9 6 17 6 18 -13 6z"/>
<path d="M2905 2270 c3 -5 8 -10 11 -10 2 0 4 5 4 10 0 6 -5 10 -11 10 -5 0
-7 -4 -4 -10z"/>
<path d="M2861 2234 c0 -11 3 -14 6 -6 3 7 2 16 -1 19 -3 4 -6 -2 -5 -13z"/>
<path d="M2175 2201 c-3 -6 -10 -9 -15 -6 -12 8 -41 -6 -34 -16 3 -5 10 -9 15
-9 6 0 7 5 3 12 -5 7 -2 9 8 6 16 -7 46 7 36 17 -3 4 -9 1 -13 -4z"/>
<path d="M1795 2150 c-3 -5 1 -10 10 -10 9 0 13 5 10 10 -3 6 -8 10 -10 10 -2
0 -7 -4 -10 -10z"/>
<path d="M2038 2153 c6 -2 18 -2 25 0 6 3 1 5 -13 5 -14 0 -19 -2 -12 -5z"/>
<path d="M2575 2150 c-3 -5 -1 -10 4 -10 6 0 11 5 11 10 0 6 -2 10 -4 10 -3 0
-8 -4 -11 -10z"/>
<path d="M4675 2150 c-3 -5 -1 -10 4 -10 6 0 11 5 11 10 0 6 -2 10 -4 10 -3 0
-8 -4 -11 -10z"/>
<path d="M2690 2140 c0 -5 7 -10 16 -10 8 0 12 5 9 10 -3 6 -10 10 -16 10 -5
0 -9 -4 -9 -10z"/>
<path d="M3518 2143 c7 -3 16 -2 19 1 4 3 -2 6 -13 5 -11 0 -14 -3 -6 -6z"/>
<path d="M4618 2143 c7 -3 16 -2 19 1 4 3 -2 6 -13 5 -11 0 -14 -3 -6 -6z"/>
<path d="M4533 2133 c9 -2 23 -2 30 0 6 3 -1 5 -18 5 -16 0 -22 -2 -12 -5z"/>
<path d="M2130 1891 c0 -56 4 -61 40 -50 l25 7 -22 7 c-26 8 -31 25 -8 25 8 0
15 5 15 10 0 6 -7 10 -15 10 -8 0 -15 5 -15 10 0 6 9 10 20 10 11 0 20 5 20
10 0 6 -13 10 -30 10 -29 0 -30 -1 -30 -49z"/>
<path d="M2229 1924 c-11 -14 -10 -19 9 -34 27 -22 28 -30 2 -30 -11 0 -20 -4
-20 -10 0 -5 14 -10 30 -10 40 0 52 28 22 48 -25 16 -30 37 -7 28 9 -3 15 0
15 9 0 20 -34 19 -51 -1z"/>
<path d="M2344 1933 c-18 -13 -26 -51 -14 -73 11 -21 70 -30 70 -10 0 6 -12
10 -26 10 -22 0 -25 4 -22 28 2 18 9 27 20 27 10 0 19 5 20 10 4 12 -33 18
-48 8z"/>
<path d="M2446 1924 c-19 -18 -20 -38 -6 -65 12 -22 59 -26 78 -7 28 28 2 88
-38 88 -10 0 -26 -7 -34 -16z m52 -37 c2 -19 -1 -27 -13 -27 -19 0 -30 24 -21
46 9 23 31 11 34 -19z"/>
<path d="M2570 1892 c0 -45 2 -50 24 -54 34 -7 59 10 29 18 -16 5 -23 15 -25
42 -5 57 -28 53 -28 -6z"/>
<path d="M2678 1893 c-11 -29 -14 -51 -8 -57 6 -6 12 -3 16 7 8 21 40 22 48 1
3 -8 10 -13 16 -9 13 8 -23 99 -41 103 -9 1 -21 -16 -31 -45z m42 -3 c0 -5 -4
-10 -10 -10 -5 0 -10 5 -10 10 0 6 5 10 10 10 6 0 10 -4 10 -10z"/>
<path d="M2790 1891 c0 -55 15 -75 29 -39 8 20 10 21 16 6 4 -10 14 -18 22
-18 9 0 11 5 6 12 -4 7 -7 29 -8 48 0 32 -3 35 -32 38 l-33 3 0 -50z m45 19
c3 -5 1 -10 -4 -10 -6 0 -11 5 -11 10 0 6 2 10 4 10 3 0 8 -4 11 -10z"/>
<path d="M2966 1896 c2 -55 8 -66 37 -59 33 9 47 23 47 49 0 30 -25 54 -58 54
-26 0 -27 -3 -26 -44z m53 6 c7 -13 6 -23 -1 -30 -19 -19 -28 -14 -28 18 0 34
14 39 29 12z"/>
<path d="M3090 1890 c0 -27 5 -51 10 -51 34 -4 44 -3 48 9 2 7 -5 12 -17 12
-12 0 -21 5 -21 10 0 6 9 10 20 10 11 0 20 5 20 10 0 6 -7 10 -15 10 -8 0 -15
5 -15 10 0 6 7 10 15 10 8 0 15 5 15 10 0 6 -13 10 -30 10 -29 0 -30 -1 -30
-50z"/>
<path d="M3257 1934 c-12 -13 -7 -44 8 -50 22 -9 18 -24 -6 -24 -11 0 -17 -4
-14 -10 10 -16 55 -11 62 7 4 11 -1 22 -15 31 -25 16 -29 34 -8 30 8 -2 16 2
18 7 4 12 -35 19 -45 9z"/>
<path d="M3350 1891 c0 -42 3 -49 22 -55 33 -8 47 11 17 23 l-24 10 23 7 c12
3 22 10 22 14 0 5 -10 11 -22 13 l-23 4 23 8 c32 11 27 25 -8 25 -29 0 -30 -1
-30 -49z"/>
<path d="M3450 1890 c0 -27 5 -50 10 -50 6 0 10 14 10 31 l0 32 23 -34 c12
-19 27 -33 32 -32 13 4 19 103 6 103 -5 0 -11 -15 -13 -32 l-3 -33 -18 33
c-27 49 -47 42 -47 -18z"/>
<path d="M3580 1930 c0 -5 5 -10 10 -10 6 0 10 -18 10 -40 0 -29 4 -40 15 -40
11 0 15 11 15 40 0 22 5 40 10 40 6 0 10 5 10 10 0 6 -16 10 -35 10 -19 0 -35
-4 -35 -10z"/>
<path d="M3690 1890 c0 -27 5 -50 10 -50 6 0 10 23 10 50 0 28 -4 50 -10 50
-5 0 -10 -22 -10 -50z"/>
<path d="M3760 1890 c0 -48 19 -74 21 -27 l0 22 9 -22 c5 -13 14 -23 20 -23 6
0 15 10 20 23 l9 22 0 -22 c1 -14 7 -23 17 -23 23 0 16 94 -8 98 -11 2 -18 -6
-23 -27 -8 -39 -21 -40 -28 -1 -4 18 -13 30 -22 30 -11 0 -15 -12 -15 -50z"/>
<path d="M3910 1891 c0 -42 3 -49 22 -55 33 -8 47 11 17 23 l-24 10 23 7 c12
3 22 10 22 14 0 5 -10 11 -22 13 l-23 4 23 8 c32 11 27 25 -8 25 -29 0 -30 -1
-30 -49z"/>
<path d="M4010 1891 c0 -59 17 -78 22 -24 l3 38 22 -37 c12 -21 27 -38 33 -38
6 0 10 24 10 55 0 30 -4 55 -10 55 -5 0 -10 -15 -10 -32 l0 -33 -21 33 c-31
48 -49 42 -49 -17z"/>
<path d="M4140 1931 c0 -5 5 -11 12 -13 6 -2 12 -19 13 -38 2 -50 25 -51 25
-1 0 23 5 41 10 41 6 0 10 5 10 10 0 6 -16 10 -35 10 -19 0 -35 -4 -35 -9z"/>
<path d="M4263 1933 c-7 -2 -13 -22 -13 -44 0 -33 4 -40 24 -45 44 -11 61 -1
64 34 5 51 -27 75 -75 55z m45 -22 c19 -11 11 -45 -11 -49 -19 -4 -32 20 -23
43 6 17 15 19 34 6z"/>
<path d="M4393 1933 c-20 -8 -15 -41 7 -48 11 -3 20 -11 20 -16 0 -5 -9 -9
-20 -9 -11 0 -20 -4 -20 -10 0 -5 14 -10 30 -10 25 0 30 4 30 24 0 13 -7 26
-15 30 -8 3 -15 10 -15 17 0 6 7 9 15 5 9 -3 15 0 15 9 0 15 -22 18 -47 8z"/>
</g>
</svg>
